{"title":"duplicity.3gp","uid":5120955,"size":63502438,"categoryP":"video","categoryS":"handheld","magnet":"?xt=urn:btih:94ba0fb79426913670065dc5061b2a1bed2580d2&amp;dn=duplicity.3gp&amp;tr=udp%3A%2F%2Ftracker.openbittorrent.com%3A80&amp;tr=udp%3A%2F%2Fopen.demonii.com%3A1337&amp;tr=udp%3A%2F%2Ftracker.coppersurfer.tk%3A6969&amp;tr=udp%3A%2F%2Fexodus.desync.com%3A6969","seeders":0,"leechers":0,"uploader":"chitchatid","files":1,"time":1255347463,"description":"General\nComplete name                    : duplicity.3gp\nFormat                           : MPEG-4\nFormat profile                   : 3GPP Media Release 4\nCodec ID                         : 3gp4\nFile size                        : 60.6 MiB\nDuration                         : 2h 0mn\nOverall bit rate                 : 70.1 Kbps\nEncoded date                     : UTC 1970-01-01 00:00:00\nTagged date                      : UTC 1970-01-01 00:00:00\n\nVideo\nID                               : 1\nFormat                           : H.263\nCodec ID                         : s263\nDuration                         : 2h 0mn\nBit rate mode                    : Variable\nBit rate                         : 55.0 Kbps\nWidth                            : 128 pixels\nHeight                           : 96 pixels\nDisplay aspect ratio             : 1.222\nFrame rate mode                  : Constant\nFrame rate                       : 10.000 fps\nBits/(Pixel*Frame)               : 0.448\nStream size                      : 47.5 MiB (78%)\nEncoded date                     : UTC 1970-01-01 00:00:00\nTagged date                      : UTC 1970-01-01 00:00:00\n\nAudio\nID                               : 2\nFormat                           : AMR\nFormat/Info                      : Adaptive Multi-Rate\nFormat profile                   : Narrow band\nCodec ID                         : samr\nDuration                         : 2h 0mn\nBit rate mode                    : Constant\nBit rate                         : 12.8 Kbps\nChannel(s)                       : 2 channels\nSampling rate                    : 8 000 Hz\nResolution                       : 16 bits\nStream size                      : 11.1 MiB (18%)\nEncoded date                     : UTC 1970-01-01 00:00:00\nTagged date                      : UTC 1970-01-01 00:00:00\n\n","torrent":{"xt":"urn:btih:94ba0fb79426913670065dc5061b2a1bed2580d2","amp;dn":"duplicity.3gp","amp;tr":["udp%3A%2F%2Ftracker.openbittorrent.com%3A80","udp%3A%2F%2Fopen.demonii.com%3A1337","udp%3A%2F%2Ftracker.coppersurfer.tk%3A6969","udp%3A%2F%2Fexodus.desync.com%3A6969"],"infoHash":"94ba0fb79426913670065dc5061b2a1bed2580d2","infoHashBuffer":{"type":"Buffer","data":[148,186,15,183,148,38,145,54,112,6,93,197,6,27,42,27,237,37,128,210]},"announce":[],"urlList":[]}}